<svg width="86" height="46" viewBox="0 0 86 46" fill="none" xmlns="http://www.w3.org/2000/svg">
<path d="M10.2424 7.13333C10.2424 5.95513 11.1831 5 12.3434 5H23.899C25.0593 5 26 5.95513 26 7.13333V12.4667C26 13.6449 25.0593 14.6 23.899 14.6H12.3434C11.1831 14.6 10.2424 13.6449 10.2424 12.4667V7.13333Z" fill="#307098"/>
<path d="M10.2424 24.7333C10.2424 23.5551 11.1831 22.6 12.3434 22.6H23.899C25.0593 22.6 26 23.5551 26 24.7333V30.0667C26 31.2449 25.0593 32.2 23.899 32.2H12.3434C11.1831 32.2 10.2424 31.2449 10.2424 30.0667V24.7333Z" fill="#307098"/>
<path d="M0 15.9333C0 14.7551 0.940654 13.8 2.10101 13.8H9.45455C10.6149 13.8 11.5556 14.7551 11.5556 15.9333V21.2667C11.5556 22.4449 10.6149 23.4 9.45455 23.4H2.10101C0.940654 23.4 0 22.4449 0 21.2667V15.9333Z" fill="#307098"/>
<path d="M0 33.5333C0 32.3551 0.940654 31.4 2.10101 31.4H9.45455C10.6149 31.4 11.5556 32.3551 11.5556 33.5333V38.8667C11.5556 40.0449 10.6149 41 9.45455 41H2.10101C0.940654 41 0 40.0449 0 38.8667V33.5333Z" fill="#307098"/>
<path d="M38.6621 8.29004C38.6621 7.44043 38.5215 6.82227 38.2402 6.43555C37.9648 6.04883 37.5957 5.85547 37.1328 5.85547H36.4297L35.7441 10.751H36.1924C36.4971 10.751 36.8076 10.6455 37.124 10.4346C37.4404 10.2178 37.6221 9.78418 37.6689 9.13379H37.9766L37.4756 12.8076H37.1855C37.2207 12.585 37.2383 12.4033 37.2383 12.2627C37.2383 11.8994 37.1533 11.6123 36.9834 11.4014C36.8193 11.1846 36.5996 11.0762 36.3242 11.0762H35.6914L34.9004 16.6924H35.7793L35.7441 17H31.8418L31.877 16.6924H32.6855L34.2148 5.85547H33.3887L33.4238 5.54785H39.3301L38.9521 8.29004H38.6621ZM39.9182 13.792L39.3206 15.3828C39.1565 15.8164 39.0745 16.0801 39.0745 16.1738C39.0745 16.5195 39.2679 16.6924 39.6546 16.6924H39.9534L39.9182 17H37.5628L37.5979 16.6924H37.888C38.2864 16.6924 38.5852 16.4287 38.7845 15.9014L42.8186 5.38965H43.469L44.638 16.6924H45.3763L45.3411 17H41.72L41.7552 16.6924H42.4583L42.1682 13.792H39.9182ZM42.1331 13.4932L41.7024 9.25684H41.6673L40.0501 13.4932H42.1331ZM47.3443 13.4316H47.6431C47.6841 14.6211 47.9156 15.4883 48.3375 16.0332C48.7652 16.5723 49.2838 16.8418 49.8931 16.8418C50.397 16.8418 50.8189 16.6484 51.1588 16.2617C51.5045 15.875 51.6773 15.3945 51.6773 14.8203C51.6773 14.5332 51.6041 14.2432 51.4576 13.9502C51.3111 13.6572 51.1295 13.3936 50.9127 13.1592C50.6959 12.9248 50.1714 12.4297 49.3394 11.6738C48.3902 10.8184 47.9156 9.88086 47.9156 8.86133C47.9156 7.85352 48.232 7.02734 48.8648 6.38281C49.5035 5.73242 50.2447 5.40723 51.0884 5.40723C51.5162 5.40723 51.9644 5.53906 52.4332 5.80273C52.6793 5.9375 52.8492 6.00488 52.9429 6.00488C53.066 6.00488 53.1714 5.95801 53.2593 5.86426C53.3472 5.76465 53.3912 5.67969 53.3912 5.60938V5.54785H53.6812L53.2418 8.68555H52.9429C52.9136 7.75977 52.732 7.0332 52.398 6.50586C52.0699 5.97852 51.6685 5.71484 51.1939 5.71484C50.731 5.71484 50.3443 5.88477 50.0338 6.22461C49.7291 6.55859 49.5767 7.00684 49.5767 7.56934C49.5767 8.31348 49.9664 9.02246 50.7457 9.69629C51.6304 10.458 52.1929 10.9766 52.4332 11.252C52.6793 11.5273 52.8902 11.8672 53.066 12.2715C53.2476 12.6758 53.3384 13.083 53.3384 13.4932C53.3384 14.5889 53.0045 15.4707 52.3365 16.1387C51.6744 16.8066 50.8423 17.1406 49.8404 17.1406C49.272 17.1406 48.7564 16.9678 48.2935 16.6221C48.065 16.4521 47.8921 16.3672 47.775 16.3672C47.4761 16.3672 47.2769 16.5781 47.1773 17H46.8345L47.3443 13.4316ZM55.7987 5.54785H59.4373L59.3934 5.85547H58.7518L58.1014 10.4873H59.8504L60.492 5.85547H59.8856L59.9207 5.54785H63.5155L63.4803 5.85547H62.7069L61.1776 16.6924H61.951L61.9159 17H58.3211L58.3563 16.6924H58.9627L59.7889 10.8037H58.0487L57.2225 16.6924H57.8641L57.8289 17H54.1991L54.2342 16.6924H55.0077L56.537 5.85547H55.7635L55.7987 5.54785ZM64.7804 5.54785H68.5421L68.507 5.85547H67.7159L66.1866 16.6924H66.9952L66.9601 17H63.1984L63.2335 16.6924H63.9718L65.5011 5.85547H64.7452L64.7804 5.54785ZM74.184 6.48828C74.184 5.96094 73.9115 5.69727 73.3666 5.69727C73.1029 5.69727 72.8686 5.84082 72.6635 6.12793C72.4584 6.40918 72.3207 6.78711 72.2504 7.26172L71.0814 15.6641C71.058 15.8105 71.0463 15.9365 71.0463 16.042C71.0463 16.5752 71.3158 16.8418 71.8549 16.8418C72.1244 16.8418 72.3617 16.6982 72.5668 16.4111C72.7719 16.124 72.9066 15.7432 72.9711 15.2686L74.14 6.86621C74.1693 6.69629 74.184 6.57031 74.184 6.48828ZM71.7846 17.123C71.0053 17.123 70.3549 16.7363 69.8334 15.9629C69.3119 15.1836 69.0512 14.1787 69.0512 12.9482C69.0512 11.6475 69.2621 10.4082 69.684 9.23047C70.1117 8.05273 70.6684 7.12109 71.3539 6.43555C72.0453 5.75 72.7426 5.40723 73.4457 5.40723C74.225 5.40723 74.8754 5.79687 75.3969 6.57617C75.9184 7.34961 76.1791 8.35156 76.1791 9.58203C76.1791 11.6152 75.7191 13.3818 74.7992 14.8818C73.8852 16.376 72.8803 17.123 71.7846 17.123ZM78.1823 5.54785H81.3024L83.3151 14.9521H83.3503L84.4841 6.88379C84.5192 6.59668 84.5368 6.44727 84.5368 6.43555C84.5368 6.04883 84.3141 5.85547 83.8688 5.85547H83.5524L83.5876 5.54785H85.9782L85.943 5.85547H85.6179C85.2194 5.85547 84.9968 6.01367 84.9499 6.33008L83.4557 17H81.5134L79.3864 7.02441H79.3512L78.1296 15.6641C78.1179 15.7402 78.112 15.8428 78.112 15.9717C78.112 16.4521 78.2995 16.6924 78.6745 16.6924H79.07L79.0261 17H76.7761L76.82 16.6924C77.1247 16.6924 77.3356 16.6338 77.4528 16.5166C77.5759 16.3936 77.6579 16.1943 77.6989 15.9189L79.1227 5.85547H78.1471L78.1823 5.54785ZM38.6621 31.29C38.6621 30.4404 38.5215 29.8223 38.2402 29.4355C37.9648 29.0488 37.5957 28.8555 37.1328 28.8555H36.4297L35.7441 33.751H36.1924C36.4971 33.751 36.8076 33.6455 37.124 33.4346C37.4404 33.2178 37.6221 32.7842 37.6689 32.1338H37.9766L37.4756 35.8076H37.1855C37.2207 35.585 37.2383 35.4033 37.2383 35.2627C37.2383 34.8994 37.1533 34.6123 36.9834 34.4014C36.8193 34.1846 36.5996 34.0762 36.3242 34.0762H35.6914L34.9004 39.6924H35.7793L35.7441 40H31.8418L31.877 39.6924H32.6855L34.2148 28.8555H33.3887L33.4238 28.5479H39.3301L38.9521 31.29H38.6621ZM40.5598 28.5479H44.3216L44.2864 28.8555H43.4954L41.9661 39.6924H42.7747L42.7395 40H38.9778L39.013 39.6924H39.7513L41.2805 28.8555H40.5247L40.5598 28.5479ZM45.5689 28.5479H52.2662L51.8531 31.5801H51.5455L51.563 31.2549C51.563 29.6553 51.0416 28.8555 49.9986 28.8555L48.4693 39.6924H49.313L49.2779 40H45.3843L45.4371 39.6924H46.2369L47.7662 28.8555C46.6705 28.9199 45.9029 29.834 45.4634 31.5977H45.1558L45.5689 28.5479Z" fill="#307098"/>
</svg>
