<svg width="30" height="30" viewBox="0 0 30 30" fill="none" xmlns="http://www.w3.org/2000/svg">
<path d="M24 23.0586L18.972 18.0306C20.1803 16.58 20.7828 14.7195 20.6542 12.8361C20.5256 10.9526 19.6759 9.19121 18.2817 7.91831C16.8876 6.64541 15.0563 5.95901 13.169 6.00189C11.2816 6.04478 9.48346 6.81365 8.14855 8.14856C6.81365 9.48346 6.04478 11.2816 6.00189 13.169C5.95901 15.0563 6.64541 16.8876 7.91831 18.2817C9.19121 19.6759 10.9526 20.5257 12.8361 20.6542C14.7195 20.7828 16.58 20.1803 18.0306 18.972L23.0586 24L24 23.0586ZM7.35538 13.3474C7.35538 12.1623 7.70681 11.0038 8.36522 10.0184C9.02364 9.03304 9.95947 8.26502 11.0544 7.8115C12.1493 7.35797 13.3541 7.23931 14.5164 7.47052C15.6788 7.70172 16.7465 8.27241 17.5845 9.11042C18.4225 9.94842 18.9932 11.0161 19.2244 12.1785C19.4556 13.3408 19.3369 14.5456 18.8834 15.6405C18.4299 16.7354 17.6618 17.6713 16.6765 18.3297C15.6911 18.9881 14.5326 19.3395 13.3474 19.3395C11.7588 19.3378 10.2357 18.7059 9.11236 17.5825C7.98901 16.4592 7.35714 14.9361 7.35538 13.3474Z" fill="#141415"/>
</svg>
