<svg width="40" height="40" viewBox="0 0 40 40" fill="none" xmlns="http://www.w3.org/2000/svg">
<path d="M10 12.8L13.3333 8H26.6667L30 12.8M10 12.8V29.6C10 30.2365 10.2341 30.847 10.6509 31.2971C11.0676 31.7471 11.6329 32 12.2222 32H27.7778C28.3671 32 28.9324 31.7471 29.3491 31.2971C29.7659 30.847 30 30.2365 30 29.6V12.8M10 12.8H30" stroke="#0A3B5A" stroke-width="2.4" stroke-linecap="round" stroke-linejoin="round"/>
<path d="M24.4444 17.6C24.4444 18.873 23.9762 20.0939 23.1427 20.9941C22.3092 21.8943 21.1787 22.4 20 22.4C18.8212 22.4 17.6908 21.8943 16.8573 20.9941C16.0238 20.0939 15.5555 18.873 15.5555 17.6" stroke="#0A3B5A" stroke-width="2.4" stroke-linecap="round" stroke-linejoin="round"/>
</svg>
