<svg width="90" height="90" viewBox="0 0 90 90" fill="none" xmlns="http://www.w3.org/2000/svg">
<g filter="url(#filter0_d_1_2929)">
<rect x="8" y="8" width="74" height="74" rx="37" fill="white"/>
<path d="M30.2701 29.5088C31.7926 29.5088 33.0268 28.2481 33.0268 26.6929C33.0268 25.1377 31.7926 23.877 30.2701 23.877C28.7476 23.877 27.5134 25.1377 27.5134 26.6929C27.5134 28.2481 28.7476 29.5088 30.2701 29.5088Z" fill="#04019D"/>
<path d="M62.4242 38.2608C63.9466 38.2608 65.1809 37 65.1809 35.4448C65.1809 33.8896 63.9466 32.6289 62.4242 32.6289C60.9017 32.6289 59.6675 33.8896 59.6675 35.4448C59.6675 37 60.9017 38.2608 62.4242 38.2608Z" fill="#04019D"/>
<path d="M38.5338 57.6753C40.0563 57.6753 41.2905 56.4146 41.2905 54.8594C41.2905 53.3042 40.0563 52.0435 38.5338 52.0435C37.0113 52.0435 35.7771 53.3042 35.7771 54.8594C35.7771 56.4146 37.0113 57.6753 38.5338 57.6753Z" fill="#04019D"/>
<path d="M25.1584 36.1767L27.9895 33.6292L32.4315 33.4434L35.1597 36.0969L35.7882 39.8327L24.687 39.8252L25.1584 36.1767ZM57.3694 44.9305L60.2014 42.383L64.6434 42.1971L67.3706 44.8507L68.0001 48.5865L56.898 48.5799L57.3694 44.9305ZM33.4726 64.3434L36.3037 61.796L40.7466 61.6101L43.4738 64.2636L44.1024 67.9994L33.0012 67.9919L33.4726 64.3434Z" fill="#04019D"/>
<path d="M30.2701 29.5088C31.7926 29.5088 33.0268 28.2481 33.0268 26.6929C33.0268 25.1377 31.7926 23.877 30.2701 23.877C28.7476 23.877 27.5134 25.1377 27.5134 26.6929C27.5134 28.2481 28.7476 29.5088 30.2701 29.5088Z" stroke="#01529D" stroke-width="1.87728" stroke-miterlimit="10"/>
<path d="M24.7566 38.8956C24.7566 38.8956 25.6755 34.8492 27.5133 33.9105C29.3511 32.9719 31.1889 32.9719 33.0267 33.9105C34.8644 34.8492 35.7833 38.8956 35.7833 38.8956" stroke="#01529D" stroke-width="1.87728" stroke-miterlimit="10" stroke-linecap="round" stroke-linejoin="round"/>
<path d="M62.4239 38.2608C63.9464 38.2608 65.1806 37 65.1806 35.4448C65.1806 33.8896 63.9464 32.6289 62.4239 32.6289C60.9014 32.6289 59.6672 33.8896 59.6672 35.4448C59.6672 37 60.9014 38.2608 62.4239 38.2608Z" stroke="#01529D" stroke-width="1.87728" stroke-miterlimit="10"/>
<path d="M56.9106 47.6476C56.9106 47.6476 57.8295 43.6011 59.6673 42.6625C61.5051 41.7238 63.3429 41.7238 65.1807 42.6625C67.0185 43.6011 67.9374 47.6467 67.9374 47.6467" stroke="#01529D" stroke-width="1.87728" stroke-miterlimit="10" stroke-linecap="round" stroke-linejoin="round"/>
<path d="M38.5338 57.6758C40.0563 57.6758 41.2905 56.4151 41.2905 54.8599C41.2905 53.3047 40.0563 52.0439 38.5338 52.0439C37.0113 52.0439 35.7771 53.3047 35.7771 54.8599C35.7771 56.4151 37.0113 57.6758 38.5338 57.6758Z" stroke="#01529D" stroke-width="1.87728" stroke-miterlimit="10"/>
<path d="M33.0203 67.0623C33.0203 67.0623 33.9392 63.0158 35.777 62.0772C37.6148 61.1385 39.4526 61.1385 41.2904 62.0772C43.1282 63.0158 44.0471 67.0614 44.0471 67.0614M59.2631 29.6368C55.3862 24.9652 49.599 22 43.1346 22C40.5893 22 38.1505 22.4599 35.891 23.3019M47.2081 64.7767C54.755 63.2711 60.8647 57.6646 63.2217 50.3198M22.0799 41.7002C22.0266 42.3282 22 42.9584 22 43.5888C22 51.0735 25.7289 57.6684 31.393 61.5421" stroke="#01529D" stroke-width="1.87728" stroke-miterlimit="10" stroke-linecap="round" stroke-linejoin="round"/>
</g>
<defs>
<filter id="filter0_d_1_2929" x="0" y="0" width="90" height="90" filterUnits="userSpaceOnUse" color-interpolation-filters="sRGB">
<feFlood flood-opacity="0" result="BackgroundImageFix"/>
<feColorMatrix in="SourceAlpha" type="matrix" values="0 0 0 0 0 0 0 0 0 0 0 0 0 0 0 0 0 0 127 0" result="hardAlpha"/>
<feOffset/>
<feGaussianBlur stdDeviation="4"/>
<feComposite in2="hardAlpha" operator="out"/>
<feColorMatrix type="matrix" values="0 0 0 0 0.945098 0 0 0 0 0.878431 0 0 0 0 0.823529 0 0 0 1 0"/>
<feBlend mode="normal" in2="BackgroundImageFix" result="effect1_dropShadow_1_2929"/>
<feBlend mode="normal" in="SourceGraphic" in2="effect1_dropShadow_1_2929" result="shape"/>
</filter>
</defs>
</svg>
