<svg width="22" height="24" viewBox="0 0 22 24" fill="none" xmlns="http://www.w3.org/2000/svg">
<path d="M17.7944 8.21359C17.7294 8.14589 17.6521 8.09217 17.5671 8.05552C17.4821 8.01887 17.3909 8 17.2989 8C17.2068 8 17.1156 8.01887 17.0306 8.05552C16.9456 8.09217 16.8683 8.14589 16.8033 8.21359L10.9998 14.2436L5.1963 8.21359C5.06488 8.07708 4.88663 8.00038 4.70078 8.00038C4.51492 8.00038 4.33667 8.07708 4.20525 8.21359C4.07383 8.35011 4 8.53527 4 8.72834C4 8.9214 4.07383 9.10656 4.20525 9.24308L10.5043 15.7864C10.5693 15.8541 10.6465 15.9078 10.7316 15.9445C10.8166 15.9811 10.9078 16 10.9998 16C11.0919 16 11.183 15.9811 11.2681 15.9445C11.3531 15.9078 11.4303 15.8541 11.4953 15.7864L17.7944 9.24308C17.8596 9.17554 17.9113 9.09531 17.9466 9.00698C17.9818 8.91866 18 8.82397 18 8.72834C18 8.63271 17.9818 8.53801 17.9466 8.44969C17.9113 8.36136 17.8596 8.28113 17.7944 8.21359Z" fill="#0A3B5A"/>
</svg>
