<svg width="23" height="18" viewBox="0 0 23 18" fill="none" xmlns="http://www.w3.org/2000/svg">
<path d="M18.7797 4.74029C18.71 4.66412 18.6273 4.60369 18.5362 4.56246C18.4451 4.52122 18.3474 4.5 18.2488 4.5C18.1501 4.5 18.0525 4.52122 17.9614 4.56246C17.8703 4.60369 17.7875 4.66412 17.7179 4.74029L11.4998 11.5241L5.28175 4.74029C5.14094 4.58671 4.94997 4.50043 4.75083 4.50043C4.5517 4.50043 4.36072 4.58671 4.21991 4.74029C4.07911 4.89388 4 5.10218 4 5.31938C4 5.53658 4.07911 5.74488 4.21991 5.89846L10.9689 13.2597C11.0385 13.3359 11.1213 13.3963 11.2124 13.4375C11.3035 13.4788 11.4012 13.5 11.4998 13.5C11.5984 13.5 11.6961 13.4788 11.7872 13.4375C11.8783 13.3963 11.9611 13.3359 12.0307 13.2597L18.7797 5.89846C18.8495 5.82249 18.9049 5.73223 18.9427 5.63286C18.9805 5.53349 19 5.42696 19 5.31938C19 5.21179 18.9805 5.10527 18.9427 5.0059C18.9049 4.90653 18.8495 4.81627 18.7797 4.74029Z" fill="#0A3B5A"/>
</svg>
