<svg width="15" height="10" viewBox="0 0 15 10" fill="none" xmlns="http://www.w3.org/2000/svg">
<path d="M14.7797 9.25971C14.71 9.33588 14.6273 9.39631 14.5362 9.43754C14.4451 9.47878 14.3474 9.5 14.2488 9.5C14.1501 9.5 14.0525 9.47878 13.9614 9.43754C13.8703 9.39631 13.7875 9.33588 13.7179 9.25971L7.4998 2.47591L1.28175 9.25971C1.14094 9.41329 0.949966 9.49957 0.750834 9.49957C0.5517 9.49957 0.360723 9.41329 0.219913 9.25971C0.0791054 9.10612 9.53674e-07 8.89782 9.53674e-07 8.68062C9.53674e-07 8.46342 0.0791054 8.25512 0.219913 8.10154L6.96888 0.740293C7.03854 0.664123 7.12129 0.603691 7.2124 0.562457C7.3035 0.521224 7.40117 0.5 7.4998 0.5C7.59844 0.5 7.69611 0.521224 7.78721 0.562457C7.87831 0.603691 7.96106 0.664123 8.03072 0.740293L14.7797 8.10154C14.8495 8.17751 14.9049 8.26777 14.9427 8.36714C14.9805 8.46651 15 8.57304 15 8.68062C15 8.78821 14.9805 8.89473 14.9427 8.9941C14.9049 9.09347 14.8495 9.18373 14.7797 9.25971Z" fill="#0A3B5A"/>
</svg>
