<svg width="40" height="30" viewBox="0 0 40 30" fill="none" xmlns="http://www.w3.org/2000/svg">
<path d="M40 25.3851C40 26.6092 39.5317 27.7831 38.6983 28.6487C37.8648 29.5142 36.7343 30.0005 35.5556 30.0005H4.44444C3.2657 30.0005 2.13524 29.5142 1.30175 28.6487C0.468253 27.7831 0 26.6092 0 25.3851V4.61587C0 3.3918 0.468253 2.21786 1.30175 1.3523C2.13524 0.48675 3.2657 0.000488281 4.44444 0.000488281H35.5556C36.7343 0.000488281 37.8648 0.48675 38.6983 1.3523C39.5317 2.21786 40 3.3918 40 4.61587V25.3851Z" fill="#285F81"/>
<path d="M13.2773 14.5805L0.707292 27.634C0.677292 27.6663 0.666181 27.7067 0.640625 27.739C1.0184 28.3967 1.54507 28.9424 2.1784 29.3359C2.21062 29.3093 2.2484 29.2978 2.2784 29.2667L14.8495 16.212C15.0579 15.9955 15.1748 15.7019 15.1747 15.3959C15.1746 15.0898 15.0574 14.7963 14.849 14.5799C14.6405 14.3636 14.3578 14.2421 14.063 14.2422C13.7683 14.2423 13.4856 14.364 13.2773 14.5805ZM39.3584 27.739C39.3351 27.7067 39.3217 27.6663 39.2917 27.6351L26.7228 14.5805C26.6197 14.4733 26.4972 14.3882 26.3624 14.3302C26.2276 14.2721 26.0831 14.2422 25.9371 14.2422C25.7912 14.2421 25.6467 14.2719 25.5118 14.3299C25.377 14.3878 25.2544 14.4728 25.1512 14.5799C25.0479 14.687 24.966 14.8142 24.9101 14.9542C24.8542 15.0942 24.8255 15.2443 24.8254 15.3959C24.8253 15.5474 24.854 15.6975 24.9098 15.8375C24.9656 15.9776 25.0475 16.1048 25.1506 16.212L37.7206 29.2667C37.7495 29.2967 37.7895 29.3093 37.8206 29.3359C38.4533 28.9449 38.9819 28.396 39.3584 27.739Z" fill="#CAD7DF"/>
<path d="M35.5556 0.000488281H4.44444C3.2657 0.000488281 2.13524 0.48675 1.30175 1.3523C0.468253 2.21786 0 3.3918 0 4.61587L0 5.80433L16.1422 22.5305C17.1586 23.5798 18.5335 24.1688 19.9667 24.1688C21.3998 24.1688 22.7748 23.5798 23.7911 22.5305L40 5.7801V4.61587C40 3.3918 39.5317 2.21786 38.6983 1.3523C37.8648 0.48675 36.7343 0.000488281 35.5556 0.000488281Z" fill="#CAD7DF"/>
<path d="M35.5567 0.000488281H4.44562C3.60921 0.00242213 2.79038 0.249901 2.0836 0.714367C1.37683 1.17883 0.810917 1.84136 0.451172 2.62549L16.8578 19.6643C17.2705 20.0929 17.7605 20.4329 18.2997 20.6649C18.839 20.8968 19.4169 21.0162 20.0006 21.0162C20.5843 21.0162 21.1622 20.8968 21.7015 20.6649C22.2407 20.4329 22.7307 20.0929 23.1434 19.6643L39.5512 2.62549C39.1915 1.84127 38.6256 1.17867 37.9188 0.71419C37.212 0.249708 36.3932 0.00228514 35.5567 0.000488281Z" fill="#285F81"/>
<path d="M16.668 4.9273C16.668 4.08499 17.0735 3.46191 17.7791 3.46191H21.8013C22.7335 3.46191 23.1057 4.0273 23.1057 4.61576C23.1057 5.18807 22.718 5.76961 21.9557 5.76961H18.9469V8.0773H21.7613C22.5569 8.0773 22.9446 8.64153 22.9446 9.23114C22.9446 9.80345 22.538 10.385 21.7613 10.385H18.9469V12.6927H22.1024C22.8791 12.6927 23.2546 13.2569 23.2546 13.8465C23.2546 14.4188 22.8624 15.0004 22.1024 15.0004H17.918C17.2035 15.0004 16.668 14.3877 16.668 13.6296V4.9273Z" fill="white"/>
</svg>
