<svg width="90" height="90" viewBox="0 0 90 90" fill="none" xmlns="http://www.w3.org/2000/svg">
<g filter="url(#filter0_d_1_2923)">
<rect x="8" y="8" width="74" height="74" rx="37" fill="white"/>
<path fill-rule="evenodd" clip-rule="evenodd" d="M49.9083 24.2168C49.3034 23.5219 48.5511 22.9638 47.7036 22.581C46.8561 22.1982 45.9336 22 45 22C44.0664 22 43.1439 22.1982 42.2964 22.581C41.4489 22.9638 40.6966 23.5219 40.0917 24.2168L40.0014 24.3218C39.7807 24.5748 39.5016 24.773 39.1872 24.9C38.8727 25.027 38.5319 25.0792 38.1928 25.0523L38.0532 25.0418C37.1229 24.9689 36.1875 25.0944 35.3118 25.4095C34.436 25.7246 33.6407 26.2218 32.9809 26.8668C32.3211 27.5117 31.8125 28.289 31.4903 29.1449C31.1682 30.0008 31.0401 30.9149 31.1149 31.8239L31.1235 31.9604C31.151 32.2918 31.0976 32.6248 30.9677 32.9321C30.8377 33.2394 30.6349 33.5121 30.376 33.7278L30.2686 33.816C29.5574 34.4072 28.9863 35.1423 28.5946 35.9704C28.2029 36.7986 28 37.7001 28 38.6124C28 39.5248 28.2029 40.4262 28.5946 41.2544C28.9863 42.0825 29.5574 42.8177 30.2686 43.4088L30.376 43.497C30.6349 43.7127 30.8377 43.9854 30.9677 44.2927C31.0976 44.6 31.151 44.933 31.1235 45.2644L31.1127 45.4009C30.9848 46.9618 31.4562 48.5134 32.4351 49.7532C33.4139 50.9931 34.8302 51.8323 36.4077 52.1075V65.9006C36.4077 66.2806 36.5132 66.6535 36.713 66.9795C36.9129 67.3056 37.1995 67.5724 37.5424 67.7517C37.8853 67.931 38.2716 68.016 38.66 67.9975C39.0485 67.9791 39.4245 67.858 39.748 67.647L45 64.2255L50.252 67.647C50.5755 67.858 50.9515 67.9791 51.34 67.9975C51.7284 68.016 52.1147 67.931 52.4576 67.7517C52.8005 67.5724 53.0871 67.3056 53.287 66.9795C53.4868 66.6535 53.5923 66.2806 53.5923 65.9006V52.1096C55.1702 51.8344 56.5868 50.9949 57.5657 49.7546C58.5446 48.5143 59.0158 46.9622 58.8873 45.4009L58.8765 45.2644C58.849 44.933 58.9024 44.6 59.0323 44.2927C59.1623 43.9854 59.3651 43.7127 59.624 43.497L59.7314 43.4088C60.4426 42.8177 61.0137 42.0825 61.4054 41.2544C61.7971 40.4262 62 39.5248 62 38.6124C62 37.7001 61.7971 36.7986 61.4054 35.9704C61.0137 35.1423 60.4426 34.4072 59.7314 33.816L59.624 33.7278C59.3651 33.5121 59.1623 33.2394 59.0323 32.9321C58.9024 32.6248 58.849 32.2918 58.8765 31.9604L58.8873 31.8239C58.9618 30.9149 58.8334 30.0009 58.511 29.1451C58.1885 28.2892 57.6797 27.5121 57.0197 26.8673C56.3597 26.2226 55.5642 25.7256 54.6884 25.4108C53.8125 25.0959 52.8771 24.9707 51.9468 25.0439L51.8072 25.0523C51.4681 25.0792 51.1273 25.027 50.8128 24.9C50.4984 24.773 50.2193 24.5748 49.9986 24.3218L49.9083 24.2168ZM40.7039 61.9795V53.6209C41.8858 54.6527 43.4151 55.223 45 55.223C46.5849 55.223 48.1142 54.6527 49.2961 53.6209V61.9753L46.1922 59.9539C45.8392 59.7237 45.4243 59.6009 45 59.6009C44.5757 59.6009 44.1608 59.7237 43.8078 59.9539L40.7039 61.9795ZM50.8148 37.9974C51.2061 37.6015 51.4226 37.0712 51.4177 36.5209C51.4128 35.9705 51.1869 35.444 50.7887 35.0548C50.3904 34.6656 49.8516 34.4449 49.2884 34.4401C48.7252 34.4353 48.1826 34.6469 47.7775 35.0293L42.8519 39.8425L42.2225 39.2274C41.8174 38.8451 41.2748 38.6335 40.7116 38.6383C40.1484 38.6431 39.6096 38.8638 39.2114 39.253C38.8131 39.6422 38.5872 40.1687 38.5823 40.7191C38.5774 41.2694 38.7939 41.7997 39.1852 42.1956L41.3333 44.2946C41.7361 44.6882 42.2823 44.9092 42.8519 44.9092C43.4215 44.9092 43.9678 44.6882 44.3706 44.2946L50.8148 37.9974Z" fill="#019D3F"/>
</g>
<defs>
<filter id="filter0_d_1_2923" x="0" y="0" width="90" height="90" filterUnits="userSpaceOnUse" color-interpolation-filters="sRGB">
<feFlood flood-opacity="0" result="BackgroundImageFix"/>
<feColorMatrix in="SourceAlpha" type="matrix" values="0 0 0 0 0 0 0 0 0 0 0 0 0 0 0 0 0 0 127 0" result="hardAlpha"/>
<feOffset/>
<feGaussianBlur stdDeviation="4"/>
<feComposite in2="hardAlpha" operator="out"/>
<feColorMatrix type="matrix" values="0 0 0 0 0.945098 0 0 0 0 0.878431 0 0 0 0 0.823529 0 0 0 1 0"/>
<feBlend mode="normal" in2="BackgroundImageFix" result="effect1_dropShadow_1_2923"/>
<feBlend mode="normal" in="SourceGraphic" in2="effect1_dropShadow_1_2923" result="shape"/>
</filter>
</defs>
</svg>
