<svg width="12" height="20" viewBox="0 0 12 20" fill="none" xmlns="http://www.w3.org/2000/svg">
<path d="M0.326698 0.273866C0.134478 0.44945 0.0265074 0.687461 0.0265074 0.93562C0.0265074 1.18378 0.134478 1.42179 0.326698 1.59737L9.52373 9.98791L0.326698 18.3784C0.22585 18.4642 0.144961 18.5676 0.0888596 18.6824C0.0327578 18.7973 0.00259209 18.9213 0.000160217 19.047C-0.00227165 19.1728 0.0230808 19.2977 0.0747061 19.4143C0.126331 19.5309 0.203173 19.6368 0.300643 19.7257C0.398113 19.8146 0.514215 19.8847 0.642027 19.9318C0.769839 19.9789 0.906739 20.0021 1.04456 19.9999C1.18238 19.9976 1.31831 19.9701 1.44422 19.9189C1.57013 19.8678 1.68345 19.794 1.77742 19.702L11.6998 10.6497C11.892 10.4741 12 10.2361 12 9.98791C12 9.73975 11.892 9.50174 11.6998 9.32616L1.77742 0.273866C1.58496 0.0985006 1.32407 0 1.05206 0C0.780047 0 0.519159 0.0985006 0.326698 0.273866Z" fill="white"/>
</svg>
