<svg width="40" height="40" viewBox="0 0 40 40" fill="none" xmlns="http://www.w3.org/2000/svg">
<path d="M20 20C21.5913 20 23.1174 19.3679 24.2426 18.2426C25.3679 17.1174 26 15.5913 26 14C26 12.4087 25.3679 10.8826 24.2426 9.75736C23.1174 8.63214 21.5913 8 20 8C18.4087 8 16.8826 8.63214 15.7574 9.75736C14.6321 10.8826 14 12.4087 14 14C14 15.5913 14.6321 17.1174 15.7574 18.2426C16.8826 19.3679 18.4087 20 20 20ZM24 14C24 15.0609 23.5786 16.0783 22.8284 16.8284C22.0783 17.5786 21.0609 18 20 18C18.9391 18 17.9217 17.5786 17.1716 16.8284C16.4214 16.0783 16 15.0609 16 14C16 12.9391 16.4214 11.9217 17.1716 11.1716C17.9217 10.4214 18.9391 10 20 10C21.0609 10 22.0783 10.4214 22.8284 11.1716C23.5786 11.9217 24 12.9391 24 14ZM32 30C32 32 30 32 30 32H10C10 32 8 32 8 30C8 28 10 22 20 22C30 22 32 28 32 30ZM30 29.992C29.998 29.5 29.692 28.02 28.336 26.664C27.032 25.36 24.578 24 20 24C15.42 24 12.968 25.36 11.664 26.664C10.308 28.02 10.004 29.5 10 29.992H30Z" fill="#0A3B5A"/>
</svg>
