<svg width="40" height="40" viewBox="0 0 40 40" fill="none" xmlns="http://www.w3.org/2000/svg">
<path d="M38.3473 29.6051L34.3534 25.6112C33.6306 24.8888 32.7252 24.3761 31.7339 24.1278C30.7426 23.8795 29.7024 23.905 28.7244 24.2014C27.7464 24.4978 26.8672 25.0542 26.1806 25.8111C25.4939 26.568 25.0256 27.4971 24.8256 28.4992C18.2395 27.2677 11.8339 20.8885 11.4352 15.1867C12.5549 14.9807 13.5853 14.4388 14.3895 13.633C15.4484 12.574 16.0432 11.1378 16.0432 9.6403C16.0432 8.14276 15.4484 6.70655 14.3895 5.64756L10.3967 1.65369C9.33774 0.594843 7.90151 0 6.40396 0C4.9064 0 3.47018 0.594843 2.41118 1.65369C-9.56831 13.633 26.3679 49.5687 38.3473 37.5894C39.4056 36.5303 40 35.0944 40 33.5973C40 32.1001 39.4056 30.6642 38.3473 29.6051Z" fill="#285F81"/>
</svg>
