<svg width="12" height="20" viewBox="0 0 12 20" fill="none" xmlns="http://www.w3.org/2000/svg">
<path d="M11.6733 0.273866C11.8655 0.44945 11.9735 0.687461 11.9735 0.93562C11.9735 1.18378 11.8655 1.42179 11.6733 1.59737L2.47627 9.98791L11.6733 18.3784C11.7741 18.4642 11.855 18.5676 11.9111 18.6824C11.9672 18.7973 11.9974 18.9213 11.9998 19.047C12.0023 19.1728 11.9769 19.2977 11.9253 19.4143C11.8737 19.5309 11.7968 19.6368 11.6994 19.7257C11.6019 19.8146 11.4858 19.8847 11.358 19.9318C11.2302 19.9789 11.0933 20.0021 10.9554 19.9999C10.8176 19.9976 10.6817 19.9701 10.5558 19.9189C10.4299 19.8678 10.3166 19.794 10.2226 19.702L0.30019 10.6497C0.107968 10.4741 0 10.2361 0 9.98791C0 9.73975 0.107968 9.50174 0.30019 9.32616L10.2226 0.273866C10.415 0.0985006 10.6759 0 10.9479 0C11.22 0 11.4808 0.0985006 11.6733 0.273866Z" fill="white"/>
</svg>
