<svg width="12" height="12" viewBox="0 0 12 12" fill="none" xmlns="http://www.w3.org/2000/svg">
<path d="M5.18369 1.01047C3.13014 2.36128 2.10363 3.98922 2.10363 5.89215C2.10363 6.48447 2.20429 6.78036 2.40459 6.78036L2.61114 6.72301C2.77389 6.65868 2.90481 6.62652 3.00548 6.62652C3.59332 6.62652 4.0852 6.84629 4.47901 7.28584C4.87334 7.72539 5.0705 8.26679 5.0705 8.91325C5.0705 9.53344 4.85665 10.0604 4.43154 10.4929C4.00591 10.9255 3.49265 11.1416 2.89177 11.1416C2.05303 11.1416 1.36086 10.7878 0.815787 10.0786C0.271755 9.37103 0 8.48121 0 7.41074C0 6.1993 0.230549 5.09131 0.693732 4.08571C1.15796 3.08064 1.86421 2.17206 2.81561 1.35996C3.76702 0.548405 4.37416 0.14209 4.63705 0.14209C4.81231 0.14209 4.95627 0.228928 5.06894 0.402604C5.1816 0.575743 5.23794 0.726906 5.23794 0.855554L5.18213 1.00993L5.18369 1.01047ZM11.9437 1.01047C9.89012 2.36128 8.86412 3.98869 8.86412 5.89269C8.86412 6.48501 8.96479 6.7809 9.16509 6.7809L9.37164 6.72354C9.53438 6.65922 9.66531 6.62706 9.76597 6.62706C10.3413 6.62706 10.83 6.84683 11.2301 7.28638C11.6317 7.72593 11.831 8.26733 11.831 8.91379C11.831 9.53398 11.6171 10.0609 11.192 10.4935C10.7664 10.9261 10.2532 11.1421 9.65226 11.1421C8.81353 11.1421 8.12136 10.7883 7.57628 10.0791C7.03225 9.37156 6.7605 8.48174 6.7605 7.41128C6.7605 6.18697 6.99418 5.0688 7.46466 4.05783C7.9341 3.04633 8.64088 2.14043 9.58602 1.34174C10.5327 0.542509 11.1362 0.142626 11.3986 0.142626C11.5744 0.142626 11.7183 0.229464 11.8315 0.40314C11.9437 0.576815 12 0.727978 12 0.856626L11.9437 1.01047Z" fill="#0A3B5A"/>
</svg>
