<svg width="15" height="14" viewBox="0 0 15 14" fill="none" xmlns="http://www.w3.org/2000/svg">
<path d="M14.5 13.2928L10.724 9.51681C11.6314 8.42747 12.0839 7.03023 11.9873 5.61577C11.8908 4.2013 11.2526 2.87851 10.2056 1.92257C9.15861 0.966634 7.78337 0.451151 6.36598 0.483357C4.94858 0.515562 3.59817 1.09298 2.59567 2.09548C1.59316 3.09799 1.01575 4.4484 0.98354 5.86579C0.951334 7.28318 1.46682 8.65843 2.42275 9.70543C3.37869 10.7524 4.70148 11.3906 6.11595 11.4871C7.53042 11.5837 8.92765 11.1312 10.017 10.2238L13.793 13.9998L14.5 13.2928ZM2 5.99981C2 5.1098 2.26392 4.23977 2.75838 3.49975C3.25285 2.75973 3.95565 2.18295 4.77792 1.84236C5.60019 1.50176 6.50499 1.41265 7.3779 1.58628C8.25082 1.75991 9.05264 2.1885 9.68198 2.81783C10.3113 3.44717 10.7399 4.24899 10.9135 5.12191C11.0872 5.99482 10.998 6.89962 10.6575 7.72189C10.3169 8.54416 9.74008 9.24696 9.00006 9.74143C8.26004 10.2359 7.39001 10.4998 6.5 10.4998C5.30693 10.4985 4.16311 10.024 3.31948 9.18033C2.47585 8.33671 2.00132 7.19288 2 5.99981Z" fill="#141415"/>
</svg>
