<svg width="40" height="40" viewBox="0 0 40 40" fill="none" xmlns="http://www.w3.org/2000/svg">
<path d="M32 30.7448L25.296 24.0408C26.907 22.1067 27.7104 19.626 27.5389 17.1148C27.3675 14.6035 26.2345 12.255 24.3756 10.5578C22.5168 8.86055 20.0751 7.94535 17.5586 8.00253C15.0422 8.05971 12.6446 9.08487 10.8647 10.8647C9.08486 12.6446 8.05971 15.0422 8.00253 17.5587C7.94535 20.0751 8.86055 22.5168 10.5577 24.3757C12.2549 26.2345 14.6035 27.3675 17.1147 27.539C19.626 27.7104 22.1067 26.907 24.0408 25.296L30.7448 32L32 30.7448ZM9.80717 17.7966C9.80717 16.2164 10.2757 14.6718 11.1536 13.3579C12.0315 12.0441 13.2793 11.02 14.7392 10.4153C16.199 9.81063 17.8055 9.65242 19.3552 9.96069C20.905 10.269 22.3286 11.0299 23.446 12.1472C24.5633 13.2646 25.3242 14.6881 25.6325 16.2379C25.9408 17.7877 25.7826 19.3941 25.1779 20.854C24.5732 22.3139 23.5491 23.5617 22.2353 24.4396C20.9214 25.3175 19.3767 25.786 17.7966 25.786C15.6784 25.7837 13.6476 24.9412 12.1498 23.4434C10.652 21.9456 9.80952 19.9148 9.80717 17.7966Z" fill="#0A3B5A"/>
</svg>
