<svg width="90" height="90" viewBox="0 0 90 90" fill="none" xmlns="http://www.w3.org/2000/svg">
<g filter="url(#filter0_d_1_2947)">
<rect x="8" y="8" width="74" height="74" rx="37" fill="white"/>
<path d="M33.1 43.2857C34.9753 43.2857 36.5 41.7482 36.5 39.8571C36.5 37.9661 34.9753 36.4286 33.1 36.4286C31.2247 36.4286 29.7 37.9661 29.7 39.8571C29.7 41.7482 31.2247 43.2857 33.1 43.2857ZM56.9 43.2857C58.7753 43.2857 60.3 41.7482 60.3 39.8571C60.3 37.9661 58.7753 36.4286 56.9 36.4286C55.0247 36.4286 53.5 37.9661 53.5 39.8571C53.5 41.7482 55.0247 43.2857 56.9 43.2857ZM58.6 45H55.2C54.265 45 53.4203 45.3804 52.8041 45.9964C54.945 47.1804 56.4644 49.3179 56.7938 51.8571H60.3C61.2403 51.8571 62 51.0911 62 50.1429V48.4286C62 46.5375 60.4753 45 58.6 45ZM45 45C48.2884 45 50.95 42.3161 50.95 39C50.95 35.6839 48.2884 33 45 33C41.7116 33 39.05 35.6839 39.05 39C39.05 42.3161 41.7116 45 45 45ZM49.08 46.7143H48.6391C47.5341 47.25 46.3069 47.5714 45 47.5714C43.6931 47.5714 42.4713 47.25 41.3609 46.7143H40.92C37.5413 46.7143 34.8 49.4786 34.8 52.8857V54.4286C34.8 55.8482 35.9422 57 37.35 57H52.65C54.0578 57 55.2 55.8482 55.2 54.4286V52.8857C55.2 49.4786 52.4587 46.7143 49.08 46.7143ZM37.1959 45.9964C36.5797 45.3804 35.735 45 34.8 45H31.4C29.5247 45 28 46.5375 28 48.4286V50.1429C28 51.0911 28.7597 51.8571 29.7 51.8571H33.2009C33.5356 49.3179 35.055 47.1804 37.1959 45.9964Z" fill="#01819D"/>
</g>
<defs>
<filter id="filter0_d_1_2947" x="0" y="0" width="90" height="90" filterUnits="userSpaceOnUse" color-interpolation-filters="sRGB">
<feFlood flood-opacity="0" result="BackgroundImageFix"/>
<feColorMatrix in="SourceAlpha" type="matrix" values="0 0 0 0 0 0 0 0 0 0 0 0 0 0 0 0 0 0 127 0" result="hardAlpha"/>
<feOffset/>
<feGaussianBlur stdDeviation="4"/>
<feComposite in2="hardAlpha" operator="out"/>
<feColorMatrix type="matrix" values="0 0 0 0 0.945098 0 0 0 0 0.878431 0 0 0 0 0.823529 0 0 0 1 0"/>
<feBlend mode="normal" in2="BackgroundImageFix" result="effect1_dropShadow_1_2947"/>
<feBlend mode="normal" in="SourceGraphic" in2="effect1_dropShadow_1_2947" result="shape"/>
</filter>
</defs>
</svg>
