<svg width="26" height="22" viewBox="0 0 26 22" fill="none" xmlns="http://www.w3.org/2000/svg">
<path d="M2.41719 12.9759L11.5934 21.4523C11.9742 21.804 12.477 22 13 22C13.523 22 14.0258 21.804 14.4066 21.4523L23.5828 12.9759C25.1266 11.5539 26 9.55918 26 7.47399V7.18257C26 3.6704 23.4355 0.675759 19.9367 0.097934C17.6211 -0.283933 15.2648 0.464727 13.6094 2.10273L13 2.70568L12.3906 2.10273C10.7352 0.464727 8.37891 -0.283933 6.06328 0.097934C2.56445 0.675759 0 3.6704 0 7.18257V7.47399C0 9.55918 0.873437 11.5539 2.41719 12.9759Z" fill="#EC5F33"/>
</svg>
