<svg width="26" height="22" viewBox="0 0 26 22" fill="none" xmlns="http://www.w3.org/2000/svg">
<path d="M13.6549 2.29705C14.2812 1.61446 15.0427 1.06016 15.8942 0.666915C16.7458 0.273666 17.6702 0.0494383 18.6129 0.007477C19.5556 -0.0344843 20.4974 0.106672 21.3827 0.422607C22.2681 0.738543 23.0789 1.22285 23.7675 1.84692C24.456 2.47099 25.0082 3.22216 25.3914 4.05607C25.7747 4.88997 25.9812 5.7897 25.9989 6.70209C26.0165 7.61448 25.8449 8.52104 25.4941 9.36821C25.1433 10.2154 24.6205 10.986 23.9566 11.6345L13.578 21.7671C13.5024 21.8409 13.4125 21.8994 13.3134 21.9394C13.2143 21.9794 13.108 22 13.0006 22C12.8932 22 12.7868 21.9794 12.6877 21.9394C12.5886 21.8994 12.4987 21.8409 12.4231 21.7671L2.04453 11.6345C0.785646 10.4055 0.0560683 8.76019 0.00318114 7.03108C-0.049706 5.30196 0.57804 3.61788 1.7596 2.31905C4.56334 -0.764091 9.5273 -0.774568 12.3462 2.29705L13.0006 3.00943L13.6549 2.29705ZM23.0217 3.3562C22.5126 2.79659 21.8863 2.34803 21.1843 2.04023C20.4823 1.73243 19.7207 1.57244 18.95 1.57085C18.1792 1.56927 17.4169 1.72613 16.7136 2.03104C16.0103 2.33594 15.382 2.78193 14.8704 3.33943L13.6072 4.71496C13.531 4.79804 13.4374 4.86455 13.3327 4.9101C13.2279 4.95565 13.1143 4.9792 12.9995 4.9792C12.8846 4.9792 12.7711 4.95565 12.6663 4.9101C12.5615 4.86455 12.4679 4.79804 12.3917 4.71496L11.1296 3.33943C10.6484 2.81001 10.0621 2.37953 9.40549 2.07355C8.74887 1.76758 8.03534 1.59236 7.30731 1.55832C6.57929 1.52427 5.85161 1.63208 5.16752 1.87535C4.48343 2.11863 3.85689 2.49239 3.32513 2.97444C2.79337 3.45649 2.36724 4.03698 2.07206 4.68143C1.77688 5.32587 1.61867 6.02112 1.60684 6.72586C1.59501 7.4306 1.7298 8.13045 2.00319 8.78383C2.27658 9.4372 2.68301 10.0308 3.19831 10.5292L13.0006 20.0972L22.8017 10.5292C23.7712 9.58293 24.333 8.31609 24.3739 6.98464C24.4147 5.65319 23.9314 4.35639 23.0217 3.3562Z" fill="#215373"/>
</svg>
