<svg width="44" height="44" viewBox="0 0 44 44" fill="none" xmlns="http://www.w3.org/2000/svg">
<path d="M22.0023 11.1526C23.6017 9.71406 25.6887 8.94569 27.8345 9.00533C29.9803 9.06497 32.0218 9.94809 33.5396 11.4732C35.0561 12.9967 35.9351 15.0452 35.9965 17.1989C36.058 19.3526 35.2971 21.4484 33.8699 23.0566L21.9995 35L10.1319 23.0566C8.70303 21.4476 7.94146 19.35 8.00352 17.1946C8.06557 15.0391 8.94655 12.9893 10.4656 11.466C11.9846 9.94262 14.0265 9.06135 16.1719 9.00307C18.3173 8.94479 20.4036 9.71392 22.0023 11.1526ZM31.5575 13.4605C30.5462 12.4452 29.1866 11.8573 27.7576 11.8173C26.3285 11.7773 24.9384 12.2882 23.8725 13.2453L22.0037 14.9302L20.1336 13.2467C19.072 12.293 17.6887 11.7815 16.2651 11.8163C14.8415 11.8511 13.4846 12.4295 12.4704 13.4339C11.4563 14.4383 10.8612 15.7932 10.8061 17.2229C10.7511 18.6526 11.2403 20.0497 12.1742 21.1298L22.0009 31.0184L31.8276 21.1312C32.7576 20.0558 33.2469 18.666 33.1967 17.2424C33.1466 15.8187 32.5608 14.4671 31.5575 13.4605Z" fill="#0A3B5A"/>
</svg>
